<svg xmlns="http://www.w3.org/2000/svg" width="15.626" height="20" viewBox="0 0 15.626 20">
  <path id="Icon_awesome-accessible-icon" data-name="Icon awesome-accessible-icon" d="M17.309,9.992l-.5,6.145a1.187,1.187,0,0,1-2.367-.191l.391-4.785-1.606.09a6.08,6.08,0,0,1-1.035,6.836l-1.535-1.535a3.9,3.9,0,0,0-5.516-5.516L3.6,9.5a6.059,6.059,0,0,1,3.18-1.57L9.723,4.582,8.059,3.613,6.043,5.41A1.188,1.188,0,0,1,4.461,3.637L7.117,1.266A1.184,1.184,0,0,1,8.5,1.125s5.442,3.16,5.449,3.168a1.393,1.393,0,0,1,.238,2.055l-2.281,2.6,4.145-.23A1.185,1.185,0,0,1,17.309,9.992ZM14.774,3.977a1.988,1.988,0,1,0-1.988-1.988,1.989,1.989,0,0,0,1.988,1.988ZM7.766,17.833a3.91,3.91,0,0,1-3.231-6.1L2.984,10.184a6.009,6.009,0,0,0-1.3,3.738,6.083,6.083,0,0,0,9.821,4.785L9.957,17.157A3.879,3.879,0,0,1,7.766,17.833Z" transform="translate(-1.688 0)" fill="#2680eb"/>
</svg>
