<svg xmlns="http://www.w3.org/2000/svg" width="15" height="12" viewBox="0 0 15 12">
  <path id="Icon_awesome-city" data-name="Icon awesome-city" d="M14.438,4.5H11.25V.563A.562.562,0,0,0,10.688,0H7.313A.562.562,0,0,0,6.75.563V2.25H5.25V.375A.375.375,0,0,0,4.875,0H4.5a.375.375,0,0,0-.375.375V2.25h-1.5V.375A.375.375,0,0,0,2.25,0H1.875A.375.375,0,0,0,1.5.375V2.25H.563A.562.562,0,0,0,0,2.813V11.25A.75.75,0,0,0,.75,12h13.5a.75.75,0,0,0,.75-.75V5.063A.562.562,0,0,0,14.438,4.5ZM3,9.469a.281.281,0,0,1-.281.281H1.781A.281.281,0,0,1,1.5,9.469V8.531a.281.281,0,0,1,.281-.281h.938A.281.281,0,0,1,3,8.531Zm0-2.25a.281.281,0,0,1-.281.281H1.781A.281.281,0,0,1,1.5,7.219V6.281A.281.281,0,0,1,1.781,6h.938A.281.281,0,0,1,3,6.281Zm0-2.25a.281.281,0,0,1-.281.281H1.781A.281.281,0,0,1,1.5,4.969V4.031a.281.281,0,0,1,.281-.281h.938A.281.281,0,0,1,3,4.031Zm3,4.5a.281.281,0,0,1-.281.281H4.781A.281.281,0,0,1,4.5,9.469V8.531a.281.281,0,0,1,.281-.281h.938A.281.281,0,0,1,6,8.531Zm0-2.25a.281.281,0,0,1-.281.281H4.781A.281.281,0,0,1,4.5,7.219V6.281A.281.281,0,0,1,4.781,6h.938A.281.281,0,0,1,6,6.281Zm0-2.25a.281.281,0,0,1-.281.281H4.781A.281.281,0,0,1,4.5,4.969V4.031a.281.281,0,0,1,.281-.281h.938A.281.281,0,0,1,6,4.031Zm3.75,2.25a.281.281,0,0,1-.281.281H8.531a.281.281,0,0,1-.281-.281V6.281A.281.281,0,0,1,8.531,6h.938a.281.281,0,0,1,.281.281Zm0-2.25a.281.281,0,0,1-.281.281H8.531a.281.281,0,0,1-.281-.281V4.031a.281.281,0,0,1,.281-.281h.938a.281.281,0,0,1,.281.281Zm0-2.25A.281.281,0,0,1,9.469,3H8.531a.281.281,0,0,1-.281-.281V1.781A.281.281,0,0,1,8.531,1.5h.938a.281.281,0,0,1,.281.281Zm3.75,6.75a.281.281,0,0,1-.281.281h-.937A.281.281,0,0,1,12,9.469V8.531a.281.281,0,0,1,.281-.281h.938a.281.281,0,0,1,.281.281Zm0-2.25a.281.281,0,0,1-.281.281h-.937A.281.281,0,0,1,12,7.219V6.281A.281.281,0,0,1,12.281,6h.938a.281.281,0,0,1,.281.281Z" fill="#2680eb"/>
</svg>
