<svg xmlns="http://www.w3.org/2000/svg" width="45.008" height="35" viewBox="0 0 45.008 35">
  <path id="Icon_awesome-home" data-name="Icon awesome-home" d="M21.906,11.333,7.5,23.2V36a1.25,1.25,0,0,0,1.25,1.25l8.756-.023a1.25,1.25,0,0,0,1.244-1.25V28.5A1.25,1.25,0,0,1,20,27.252h5a1.25,1.25,0,0,1,1.25,1.25v7.473a1.25,1.25,0,0,0,1.25,1.254l8.753.024A1.25,1.25,0,0,0,37.5,36V23.189L23.1,11.333A.952.952,0,0,0,21.906,11.333ZM44.661,19.4l-6.532-5.384V3.191a.938.938,0,0,0-.938-.938H32.816a.938.938,0,0,0-.938.938V8.864l-7-5.755a3.75,3.75,0,0,0-4.766,0L.339,19.4a.938.938,0,0,0-.125,1.32L2.207,23.14a.938.938,0,0,0,1.321.127L21.906,8.13a.952.952,0,0,1,1.2,0L41.481,23.268a.938.938,0,0,0,1.32-.125l1.992-2.422a.938.938,0,0,0-.133-1.323Z" transform="translate(0.001 -2.254)" fill="#2680eb"/>
</svg>
