<svg xmlns="http://www.w3.org/2000/svg" width="34.1" height="34.159" viewBox="0 0 34.1 34.159">
  <path id="Icon_feather-phone-call" data-name="Icon feather-phone-call" d="M22.333,7.425a7.406,7.406,0,0,1,5.851,5.851M22.333,1.5A13.331,13.331,0,0,1,34.109,13.261m-1.481,11.82v4.444A2.963,2.963,0,0,1,29.4,32.488a29.314,29.314,0,0,1-12.783-4.547,28.885,28.885,0,0,1-8.888-8.888A29.314,29.314,0,0,1,3.18,6.21,2.963,2.963,0,0,1,6.128,2.981h4.444a2.963,2.963,0,0,1,2.963,2.548,19.019,19.019,0,0,0,1.037,4.162,2.963,2.963,0,0,1-.667,3.125L12.023,14.7a23.7,23.7,0,0,0,8.888,8.888L22.792,21.7a2.963,2.963,0,0,1,3.125-.667,19.019,19.019,0,0,0,4.162,1.037A2.963,2.963,0,0,1,32.627,25.082Z" transform="translate(-1.667 0.156)" fill="none" stroke="#2680eb" stroke-linecap="round" stroke-width="3"/>
</svg>
