<svg xmlns="http://www.w3.org/2000/svg" width="35" height="35" viewBox="0 0 35 35">
  <g id="Icon_feather-help-circle" data-name="Icon feather-help-circle" transform="translate(0)">
    <g id="Path_78" data-name="Path 78" transform="translate(-3 -3)" fill="none" stroke-linecap="round" stroke-linejoin="round">
      <path d="M38,20.5A17.5,17.5,0,1,1,20.5,3,17.5,17.5,0,0,1,38,20.5Z" stroke="none"/>
      <path d="M 20.5 6 C 16.62690925598145 6 12.98563957214355 7.508258819580078 10.24695014953613 10.24695014953613 C 7.508258819580078 12.98563957214355 6 16.62690925598145 6 20.5 C 6 24.37309074401855 7.508258819580078 28.01436042785645 10.24695014953613 30.75304985046387 C 12.98563957214355 33.49174118041992 16.62690925598145 35 20.5 35 C 24.37309074401855 35 28.01436042785645 33.49174118041992 30.75304985046387 30.75304985046387 C 33.49174118041992 28.01436042785645 35 24.37309074401855 35 20.5 C 35 16.62690925598145 33.49174118041992 12.98563957214355 30.75304985046387 10.24695014953613 C 28.01436042785645 7.508258819580078 24.37309074401855 6 20.5 6 M 20.5 3 C 30.16497993469238 3 38 10.83502006530762 38 20.5 C 38 30.16497993469238 30.16497993469238 38 20.5 38 C 10.83502006530762 38 3 30.16497993469238 3 20.5 C 3 10.83502006530762 10.83502006530762 3 20.5 3 Z" stroke="none" fill="#2680eb"/>
    </g>
    <path id="Path_79" data-name="Path 79" d="M13.635,13.5A4.5,4.5,0,0,1,22.38,15c0,3-4.5,4.5-4.5,4.5" transform="translate(-0.498 -1.215)" fill="none" stroke="#2680eb" stroke-linecap="round" stroke-linejoin="round" stroke-width="3"/>
    <path id="Path_80" data-name="Path 80" d="M18,25.5h0" transform="translate(-0.5 0.75)" fill="none" stroke="#2680eb" stroke-linecap="round" stroke-linejoin="round" stroke-width="3"/>
  </g>
</svg>
