<svg xmlns="http://www.w3.org/2000/svg" width="39.375" height="35" viewBox="0 0 39.375 35">
  <path id="Icon_awesome-hospital-alt" data-name="Icon awesome-hospital-alt" d="M37.188,6.563h-8.75V2.188A2.185,2.185,0,0,0,26.25,0H13.125a2.185,2.185,0,0,0-2.187,2.188V6.563H2.188A2.185,2.185,0,0,0,0,8.75V33.906A1.1,1.1,0,0,0,1.094,35H38.281a1.1,1.1,0,0,0,1.094-1.094V8.75A2.185,2.185,0,0,0,37.188,6.563ZM10.938,29.8a.823.823,0,0,1-.82.82H7.383a.823.823,0,0,1-.82-.82V27.07a.823.823,0,0,1,.82-.82h2.734a.823.823,0,0,1,.82.82Zm0-8.75a.823.823,0,0,1-.82.82H7.383a.823.823,0,0,1-.82-.82V18.32a.823.823,0,0,1,.82-.82h2.734a.823.823,0,0,1,.82.82ZM21.875,29.8a.823.823,0,0,1-.82.82H18.32a.823.823,0,0,1-.82-.82V27.07a.823.823,0,0,1,.82-.82h2.734a.823.823,0,0,1,.82.82Zm0-8.75a.823.823,0,0,1-.82.82H18.32a.823.823,0,0,1-.82-.82V18.32a.823.823,0,0,1,.82-.82h2.734a.823.823,0,0,1,.82.82ZM22.969,9.434a.411.411,0,0,1-.41.41H20.781v1.777a.411.411,0,0,1-.41.41H19a.411.411,0,0,1-.41-.41V9.844H16.816a.411.411,0,0,1-.41-.41V8.066a.411.411,0,0,1,.41-.41h1.777V5.879a.411.411,0,0,1,.41-.41h1.367a.411.411,0,0,1,.41.41V7.656h1.777a.411.411,0,0,1,.41.41ZM32.813,29.8a.823.823,0,0,1-.82.82H29.258a.823.823,0,0,1-.82-.82V27.07a.823.823,0,0,1,.82-.82h2.734a.823.823,0,0,1,.82.82Zm0-8.75a.823.823,0,0,1-.82.82H29.258a.823.823,0,0,1-.82-.82V18.32a.823.823,0,0,1,.82-.82h2.734a.823.823,0,0,1,.82.82Z" transform="translate(0 0)" fill="#2680eb"/>
</svg>
