<svg xmlns="http://www.w3.org/2000/svg" width="15" height="13.333" viewBox="0 0 15 13.333">
  <path id="Icon_awesome-map-marked-alt" data-name="Icon awesome-map-marked-alt" d="M7.5,0A3.281,3.281,0,0,0,4.219,3.281c0,1.465,2.145,4.135,2.966,5.1a.411.411,0,0,0,.63,0c.822-.969,2.966-3.64,2.966-5.1A3.281,3.281,0,0,0,7.5,0Zm0,4.375A1.094,1.094,0,1,1,8.594,3.281,1.094,1.094,0,0,1,7.5,4.375ZM.524,5.624A.833.833,0,0,0,0,6.4v6.519a.417.417,0,0,0,.571.387l3.6-1.636V5.6a7.886,7.886,0,0,1-.553-1.209ZM7.5,9.366a1.244,1.244,0,0,1-.951-.442c-.512-.6-1.057-1.292-1.549-2v4.74l5,1.667V6.927c-.493.705-1.037,1.394-1.549,2A1.245,1.245,0,0,1,7.5,9.366ZM14.429,4.2l-3.6,1.636v7.5l3.643-1.457A.833.833,0,0,0,15,11.1V4.584A.417.417,0,0,0,14.429,4.2Z" transform="translate(0 0)" fill="#2680eb"/>
</svg>
