<svg xmlns="http://www.w3.org/2000/svg" width="15" height="11.25" viewBox="0 0 15 11.25">
  <path id="Icon_metro-profile" data-name="Icon metro-profile" d="M18.427,9.319H17.378V7.745l-2.165-.033.011,1.607H8.717l.044-1.607-2.12.033V9.352L5.57,9.319A1.072,1.072,0,0,0,4.5,10.391v7.5A1.072,1.072,0,0,0,5.57,18.962H18.427A1.072,1.072,0,0,0,19.5,17.891v-7.5A1.072,1.072,0,0,0,18.427,9.319ZM15.749,8.248H16.82v2.143H15.749ZM8.784,11.9a1.4,1.4,0,0,1,1.172,1.54,1.4,1.4,0,0,1-1.172,1.54,1.4,1.4,0,0,1-1.172-1.54A1.4,1.4,0,0,1,8.784,11.9ZM7.177,8.248H8.249v2.143H7.177Zm-.714,8.544s.127-1.019.416-1.211A4.109,4.109,0,0,1,8,15.26s.539.576.768.576.768-.576.768-.576a4.1,4.1,0,0,1,1.12.32c.339.226.424,1.211.424,1.211H6.463Zm10.893-.508H12.534v-.536h4.821Zm0-1.071H12.534v-.536h4.821Zm0-1.071H12.534V13.6h4.821Zm0-1.071H12.534v-.536h4.821Z" transform="translate(-4.499 -7.712)" fill="#2680eb"/>
</svg>
