<svg xmlns="http://www.w3.org/2000/svg" width="15" height="17.143" viewBox="0 0 15 17.143">
  <path id="Icon_awesome-passport" data-name="Icon awesome-passport" d="M4.34,5.893H5.649a7.555,7.555,0,0,1,.476-2.357A3.209,3.209,0,0,0,4.34,5.893Zm0,1.071A3.21,3.21,0,0,0,6.125,9.322a7.546,7.546,0,0,1-.476-2.357H4.34ZM7.5,9.6a4.555,4.555,0,0,0,.784-2.635H6.715A4.558,4.558,0,0,0,7.5,9.6ZM6.716,5.893H8.285A4.556,4.556,0,0,0,7.5,3.258,4.553,4.553,0,0,0,6.716,5.893Zm2.16,3.429A3.209,3.209,0,0,0,10.66,6.964H9.351A7.546,7.546,0,0,1,8.875,9.322ZM13.929,0H2.143A2.143,2.143,0,0,0,0,2.143V15a2.143,2.143,0,0,0,2.143,2.143H13.929A1.072,1.072,0,0,0,15,16.071v-15A1.072,1.072,0,0,0,13.929,0ZM11.25,13.929H3.75a.536.536,0,1,1,0-1.071h7.5a.536.536,0,1,1,0,1.071ZM7.5,10.714a4.286,4.286,0,1,1,4.286-4.286A4.286,4.286,0,0,1,7.5,10.714ZM8.875,3.535a7.546,7.546,0,0,1,.476,2.357H10.66A3.209,3.209,0,0,0,8.875,3.535Z" transform="translate(0 0)" fill="#2680eb"/>
</svg>
