<svg xmlns="http://www.w3.org/2000/svg" width="15" height="14.999" viewBox="0 0 15 14.999">
  <path id="Icon_ionic-ios-call" data-name="Icon ionic-ios-call" d="M19.057,16.247a12.6,12.6,0,0,0-2.632-1.761c-.789-.379-1.078-.371-1.636.031-.465.336-.765.648-1.3.531a7.757,7.757,0,0,1-2.612-1.933A7.7,7.7,0,0,1,8.943,10.5c-.113-.539.2-.836.531-1.3.4-.558.414-.847.031-1.636A12.35,12.35,0,0,0,7.744,4.935c-.574-.574-.7-.449-1.019-.336a5.8,5.8,0,0,0-.933.5A2.815,2.815,0,0,0,4.671,6.278c-.223.48-.48,1.375.832,3.71a20.7,20.7,0,0,0,3.639,4.854h0l0,0,0,0h0A20.78,20.78,0,0,0,14,18.488c2.335,1.312,3.229,1.054,3.71.832A2.767,2.767,0,0,0,18.9,18.2a5.8,5.8,0,0,0,.5-.933C19.506,16.95,19.635,16.821,19.057,16.247Z" transform="translate(-4.49 -4.502)" fill="#2680eb"/>
</svg>
