<svg xmlns="http://www.w3.org/2000/svg" width="30.625" height="35" viewBox="0 0 30.625 35">
  <path id="Icon_awesome-hospital" data-name="Icon awesome-hospital" d="M30.625,33.633V35H0V33.633a.82.82,0,0,1,.82-.82H2.188V8.2A1.641,1.641,0,0,1,3.828,6.563H9.844V1.641A1.641,1.641,0,0,1,11.484,0h7.656a1.641,1.641,0,0,1,1.641,1.641V6.563H26.8A1.641,1.641,0,0,1,28.438,8.2V32.813H29.8A.82.82,0,0,1,30.625,33.633Zm-9.57-20.508H18.32a.82.82,0,0,0-.82.82V16.68a.82.82,0,0,0,.82.82h2.734a.82.82,0,0,0,.82-.82V13.945A.82.82,0,0,0,21.055,13.125ZM9.57,17.5H12.3a.82.82,0,0,0,.82-.82V13.945a.82.82,0,0,0-.82-.82H9.57a.82.82,0,0,0-.82.82V16.68A.82.82,0,0,0,9.57,17.5Zm7.109,8.75H13.945a.82.82,0,0,0-.82.82v5.742H17.5V27.07A.82.82,0,0,0,16.68,26.25Zm4.375-6.562H18.32a.82.82,0,0,0-.82.82v2.734a.82.82,0,0,0,.82.82h2.734a.82.82,0,0,0,.82-.82V20.508A.82.82,0,0,0,21.055,19.688Zm-7.93.82a.82.82,0,0,0-.82-.82H9.57a.82.82,0,0,0-.82.82v2.734a.82.82,0,0,0,.82.82H12.3a.82.82,0,0,0,.82-.82ZM12.441,6.563h1.777V8.34a.41.41,0,0,0,.41.41H16a.41.41,0,0,0,.41-.41V6.563h1.777a.41.41,0,0,0,.41-.41V4.785a.41.41,0,0,0-.41-.41H16.406V2.6a.41.41,0,0,0-.41-.41H14.629a.41.41,0,0,0-.41.41V4.375H12.441a.41.41,0,0,0-.41.41V6.152A.41.41,0,0,0,12.441,6.563Z" transform="translate(0 0)" fill="#2680eb"/>
</svg>
